<?xml version="1.0" encoding="UTF-8" standalone="no"?>
<!DOCTYPE svg PUBLIC "-//W3C//DTD SVG 1.1//EN" "http://www.w3.org/Graphics/SVG/1.1/DTD/svg11.dtd">
<svg width="100%" height="100%" viewBox="0 0 469 298" version="1.1" xmlns="http://www.w3.org/2000/svg" xmlns:xlink="http://www.w3.org/1999/xlink" xml:space="preserve" xmlns:serif="http://www.serif.com/" style="fill-rule:evenodd;clip-rule:evenodd;stroke-linejoin:round;stroke-miterlimit:2;">
    <g transform="matrix(1,0,0,1,-279.895,-169.081)">
        <g transform="matrix(1,0,0,1,270.648,320.317)">
            <g transform="matrix(1,0,0,1,-270.648,-320.317)">
                <g transform="matrix(187.046,0,0,187.046,281.578,304.316)">
                    <path d="M1.117,-0.644C1.117,-0.655 1.111,-0.663 1.111,-0.663C1.111,-0.663 1.043,-0.655 0.993,-0.655C0.93,-0.655 0.859,-0.663 0.859,-0.663C0.859,-0.663 0.853,-0.655 0.853,-0.644C0.853,-0.635 0.857,-0.629 0.857,-0.629C0.908,-0.625 0.941,-0.606 0.941,-0.565C0.941,-0.549 0.935,-0.526 0.928,-0.508L0.793,-0.154L0.642,-0.53C0.635,-0.548 0.63,-0.564 0.63,-0.576C0.63,-0.609 0.655,-0.628 0.687,-0.629C0.687,-0.629 0.691,-0.635 0.691,-0.644C0.691,-0.655 0.685,-0.663 0.685,-0.663C0.685,-0.663 0.607,-0.655 0.538,-0.655C0.465,-0.655 0.39,-0.663 0.39,-0.663C0.39,-0.663 0.384,-0.655 0.384,-0.644C0.384,-0.635 0.387,-0.629 0.387,-0.629C0.421,-0.627 0.454,-0.597 0.481,-0.535L0.515,-0.456C0.515,-0.456 0.516,-0.428 0.503,-0.396L0.407,-0.154L0.257,-0.53C0.25,-0.547 0.246,-0.563 0.246,-0.574C0.246,-0.609 0.274,-0.628 0.307,-0.629C0.307,-0.629 0.311,-0.635 0.311,-0.644C0.311,-0.655 0.305,-0.663 0.305,-0.663C0.305,-0.663 0.223,-0.655 0.156,-0.655C0.079,-0.655 -0.003,-0.663 -0.003,-0.663C-0.003,-0.663 -0.009,-0.655 -0.009,-0.644C-0.009,-0.635 -0.006,-0.629 -0.006,-0.629C0.035,-0.624 0.069,-0.597 0.095,-0.535L0.323,0.007C0.323,0.007 0.341,0.01 0.362,0.01C0.382,0.01 0.4,0.007 0.4,0.007L0.551,-0.368L0.709,0.007C0.709,0.007 0.727,0.01 0.748,0.01C0.768,0.01 0.787,0.007 0.787,0.007L0.992,-0.514C1.021,-0.587 1.061,-0.623 1.113,-0.629C1.113,-0.629 1.117,-0.635 1.117,-0.644Z" style="fill-rule:nonzero;"/>
                </g>
                <g transform="matrix(187.046,0,0,187.046,461.142,304.316)">
                    <path d="M0.511,-0.249C0.511,-0.38 0.43,-0.486 0.277,-0.486C0.242,-0.486 0.209,-0.476 0.194,-0.47C0.149,-0.452 0.025,-0.386 0.025,-0.216C0.025,-0.084 0.107,0.022 0.26,0.022C0.295,0.022 0.328,0.012 0.343,0.006C0.388,-0.012 0.511,-0.079 0.511,-0.249ZM0.386,-0.186C0.386,-0.085 0.348,-0.039 0.299,-0.039C0.225,-0.039 0.15,-0.145 0.15,-0.285C0.15,-0.386 0.189,-0.432 0.238,-0.432C0.312,-0.432 0.386,-0.326 0.386,-0.186Z" style="fill-rule:nonzero;"/>
                </g>
                <g transform="matrix(187.046,0,0,187.046,552.608,304.316)">
                    <path d="M0.441,-0.445C0.441,-0.461 0.436,-0.47 0.436,-0.47C0.436,-0.47 0.419,-0.486 0.39,-0.486C0.362,-0.486 0.339,-0.477 0.339,-0.477L0.229,-0.412C0.223,-0.456 0.21,-0.489 0.21,-0.489L0.2,-0.489C0.2,-0.489 0.156,-0.469 0.102,-0.46C0.064,-0.454 0.025,-0.453 0.025,-0.453C0.025,-0.453 0.022,-0.446 0.022,-0.44C0.022,-0.429 0.028,-0.421 0.028,-0.421C0.069,-0.421 0.102,-0.395 0.102,-0.343L0.102,-0.102C0.102,-0.053 0.078,-0.027 0.029,-0.025C0.029,-0.025 0.026,-0.019 0.026,-0.01C0.026,-0.001 0.032,0.007 0.032,0.007C0.032,0.007 0.105,0 0.166,0C0.234,0 0.31,0.007 0.31,0.007C0.31,0.007 0.316,-0.001 0.316,-0.01C0.316,-0.019 0.312,-0.025 0.312,-0.025C0.259,-0.027 0.231,-0.053 0.231,-0.102L0.231,-0.378C0.231,-0.378 0.272,-0.401 0.316,-0.401C0.347,-0.401 0.372,-0.381 0.386,-0.36L0.414,-0.362C0.43,-0.384 0.441,-0.415 0.441,-0.445Z" style="fill-rule:nonzero;"/>
                </g>
                <g transform="matrix(187.046,0,0,187.046,627.427,304.316)">
                    <path d="M0.647,-0.011C0.647,-0.02 0.644,-0.025 0.644,-0.025C0.585,-0.03 0.545,-0.068 0.519,-0.096C0.444,-0.177 0.354,-0.305 0.354,-0.305L0.431,-0.374C0.488,-0.425 0.58,-0.434 0.58,-0.434C0.58,-0.434 0.585,-0.442 0.585,-0.455C0.585,-0.463 0.581,-0.469 0.581,-0.469C0.581,-0.469 0.523,-0.459 0.459,-0.459C0.393,-0.459 0.345,-0.464 0.345,-0.464C0.345,-0.464 0.342,-0.457 0.342,-0.451C0.342,-0.439 0.346,-0.431 0.346,-0.431C0.374,-0.431 0.393,-0.422 0.393,-0.409C0.393,-0.401 0.387,-0.39 0.377,-0.381L0.223,-0.232L0.223,-0.593C0.223,-0.674 0.202,-0.723 0.202,-0.723L0.192,-0.723C0.192,-0.723 0.148,-0.703 0.094,-0.694C0.056,-0.688 0.017,-0.687 0.017,-0.687C0.017,-0.687 0.014,-0.68 0.014,-0.674C0.014,-0.663 0.02,-0.655 0.02,-0.655C0.061,-0.655 0.094,-0.63 0.094,-0.578L0.094,-0.102C0.094,-0.053 0.07,-0.027 0.021,-0.025C0.021,-0.025 0.018,-0.019 0.018,-0.01C0.018,-0.001 0.024,0.007 0.024,0.007C0.024,0.007 0.097,0 0.158,0C0.219,0 0.297,0.007 0.297,0.007C0.297,0.007 0.303,-0.001 0.303,-0.01C0.303,-0.019 0.3,-0.025 0.3,-0.025C0.25,-0.027 0.223,-0.053 0.223,-0.102L0.223,-0.177L0.271,-0.223L0.408,-0.035C0.425,-0.012 0.429,0.005 0.429,0.005C0.429,0.005 0.48,0.001 0.52,0.001C0.575,0.001 0.64,0.007 0.64,0.007C0.64,0.007 0.647,-0.002 0.647,-0.011Z" style="fill-rule:nonzero;"/>
                </g>
                <g transform="matrix(187.046,0,0,187.046,281.578,462.771)">
                    <path d="M0.766,-0.644C0.766,-0.655 0.76,-0.663 0.76,-0.663C0.76,-0.663 0.703,-0.656 0.649,-0.656C0.594,-0.656 0.535,-0.663 0.535,-0.663C0.535,-0.663 0.529,-0.655 0.529,-0.644C0.529,-0.635 0.532,-0.629 0.532,-0.629C0.591,-0.624 0.625,-0.606 0.625,-0.512L0.625,-0.178L0.307,-0.575C0.273,-0.617 0.263,-0.657 0.263,-0.657C0.128,-0.657 0.039,-0.664 0.039,-0.664C0.039,-0.664 0.034,-0.653 0.034,-0.644C0.034,-0.637 0.037,-0.628 0.037,-0.628C0.102,-0.619 0.122,-0.593 0.122,-0.516L0.122,-0.151C0.122,-0.05 0.096,-0.03 0.033,-0.026C0.033,-0.026 0.03,-0.02 0.03,-0.011C0.03,0 0.036,0.007 0.036,0.007C0.036,0.007 0.095,0 0.149,0C0.202,0 0.262,0.007 0.262,0.007C0.262,0.007 0.268,0 0.268,-0.011C0.268,-0.02 0.265,-0.026 0.265,-0.026C0.202,-0.033 0.176,-0.05 0.176,-0.151L0.176,-0.51L0.591,0.004L0.68,0.004C0.68,0.004 0.678,-0.03 0.678,-0.071L0.678,-0.512C0.678,-0.605 0.708,-0.624 0.762,-0.629C0.762,-0.629 0.766,-0.635 0.766,-0.644Z" style="fill-rule:nonzero;"/>
                </g>
                <g transform="matrix(187.046,0,0,187.046,414.942,462.771)">
                    <path d="M0.511,-0.249C0.511,-0.38 0.43,-0.486 0.277,-0.486C0.242,-0.486 0.209,-0.476 0.194,-0.47C0.149,-0.452 0.025,-0.386 0.025,-0.216C0.025,-0.084 0.107,0.022 0.26,0.022C0.295,0.022 0.328,0.012 0.343,0.006C0.388,-0.012 0.511,-0.079 0.511,-0.249ZM0.386,-0.186C0.386,-0.085 0.348,-0.039 0.299,-0.039C0.225,-0.039 0.15,-0.145 0.15,-0.285C0.15,-0.386 0.189,-0.432 0.238,-0.432C0.312,-0.432 0.386,-0.326 0.386,-0.186Z" style="fill-rule:nonzero;"/>
                </g>
                <g transform="matrix(187.046,0,0,187.046,506.408,462.771)">
                    <path d="M0.414,-0.061C0.414,-0.078 0.399,-0.084 0.399,-0.084C0.399,-0.084 0.349,-0.058 0.305,-0.058C0.254,-0.058 0.221,-0.094 0.221,-0.164L0.221,-0.409L0.387,-0.409C0.387,-0.409 0.395,-0.425 0.395,-0.442C0.395,-0.459 0.386,-0.473 0.386,-0.473C0.386,-0.473 0.325,-0.459 0.221,-0.459L0.221,-0.564C0.214,-0.572 0.199,-0.578 0.184,-0.577C0.152,-0.514 0.087,-0.465 0.015,-0.459C0.015,-0.459 0.011,-0.449 0.011,-0.438C0.011,-0.421 0.02,-0.409 0.02,-0.409L0.092,-0.409L0.092,-0.143C0.092,-0.035 0.15,0.022 0.252,0.022C0.262,0.022 0.278,0.015 0.278,0.015L0.412,-0.052C0.412,-0.052 0.414,-0.057 0.414,-0.061Z" style="fill-rule:nonzero;"/>
                </g>
                <g transform="matrix(187.046,0,0,187.046,574.118,462.771)">
                    <path d="M0.469,-0.289C0.469,-0.396 0.408,-0.486 0.277,-0.486C0.242,-0.486 0.209,-0.476 0.194,-0.47C0.149,-0.452 0.025,-0.386 0.025,-0.216C0.025,-0.084 0.109,0.022 0.262,0.022C0.349,0.022 0.413,-0.028 0.453,-0.077C0.45,-0.09 0.441,-0.1 0.429,-0.102C0.429,-0.102 0.377,-0.051 0.317,-0.051C0.219,-0.051 0.158,-0.141 0.15,-0.252L0.437,-0.252C0.45,-0.259 0.463,-0.272 0.469,-0.289ZM0.342,-0.326C0.342,-0.312 0.338,-0.301 0.338,-0.301L0.15,-0.289C0.153,-0.371 0.184,-0.434 0.249,-0.434C0.308,-0.434 0.342,-0.391 0.342,-0.326Z" style="fill-rule:nonzero;"/>
                </g>
                <g transform="matrix(187.046,0,0,187.046,659.599,462.771)">
                    <path d="M0.417,-0.15C0.417,-0.225 0.359,-0.262 0.259,-0.299C0.174,-0.331 0.142,-0.354 0.142,-0.387C0.142,-0.418 0.175,-0.439 0.221,-0.439C0.306,-0.439 0.352,-0.39 0.369,-0.35C0.381,-0.35 0.395,-0.353 0.403,-0.36C0.393,-0.388 0.391,-0.424 0.394,-0.456C0.394,-0.456 0.344,-0.486 0.263,-0.486C0.138,-0.486 0.039,-0.417 0.039,-0.328C0.039,-0.26 0.084,-0.225 0.195,-0.182C0.29,-0.145 0.317,-0.128 0.317,-0.09C0.317,-0.06 0.286,-0.028 0.224,-0.028C0.135,-0.028 0.088,-0.089 0.073,-0.133C0.062,-0.134 0.048,-0.131 0.038,-0.123C0.045,-0.089 0.049,-0.046 0.047,-0.014C0.047,-0.014 0.111,0.022 0.204,0.022C0.313,0.022 0.417,-0.053 0.417,-0.15Z" style="fill-rule:nonzero;"/>
                </g>
            </g>
        </g>
    </g>
</svg>
